PathFileType	4	(X/Y/Z)	Run_500 01
DataRate	CameraRate	NumFrames	NumMarkers	Units	OrigDataRate	OrigDataStartFrame	OrigNumFrames
120	120	4	41	mm	120	210	128
Frame#	Time	RASI			LPSI			RPSI			RTH3			LTH1			LTH2			LTH3			RTB1			RTB2			RTB3			LTB1			LTB2			LTB3			RCAL			RTOE			RMT5			LCAL			LTOE			LMT5			LACR			RACR			CLAV			C7			RUA1			RUA2			RUA3			RLEL			LUA1			LUA2			LUA3			LLEL			LMEL			RFAsuperior			RFAradius			RFAulna			LFAsuperior			LFAradius			LFAulna			LASI			RTH1			RMEL			
		X1	Y1	Z1	X2	Y2	Z2	X3	Y3	Z3	X4	Y4	Z4	X5	Y5	Z5	X6	Y6	Z6	X7	Y7	Z7	X8	Y8	Z8	X9	Y9	Z9	X10	Y10	Z10	X11	Y11	Z11	X12	Y12	Z12	X13	Y13	Z13	X14	Y14	Z14	X15	Y15	Z15	X16	Y16	Z16	X17	Y17	Z17	X18	Y18	Z18	X19	Y19	Z19	X20	Y20	Z20	X21	Y21	Z21	X22	Y22	Z22	X23	Y23	Z23	X24	Y24	Z24	X25	Y25	Z25	X26	Y26	Z26	X27	Y27	Z27	X28	Y28	Z28	X29	Y29	Z29	X30	Y30	Z30	X31	Y31	Z31	X32	Y32	Z32	X33	Y33	Z33	X34	Y34	Z34	X35	Y35	Z35	X36	Y36	Z36	X37	Y37	Z37	X38	Y38	Z38	X39	Y39	Z39	X40	Y40	Z40	X41	Y41	Z41	

209	1.983333	997.928673	922.194572	-217.8884	816.343934	989.152738	-344.806065	823.769943	971.67026	-246.56418	945.48973	510.906617	-154.979684	948.744548	778.19454	-494.036092	1041.593383	698.312234	-470.067241	1027.807039	575.477984	-427.66257	828.443535	435.647845	-222.673305	789.599457	499.824877	-167.097164	728.2277329999999	508.741763	-232.710535	1094.66799	378.832924	-321.799371	1044.414782	304.774114	-388.737036	1037.351509	215.951325	-304.617765	643.9533249999999	678.06665	-253.306359	512.534915	512.121855	-264.562904	513.594285	545.011931	-172.912878	898.282703	109.331968	-289.565163	1099.819414	75.153374	-256.30089	1088.965044	61.762049	-346.962833	964.600159	1389.136102	-523.197058	977.651755	1402.775078	-124.738584	1031.300355	1391.171485	-305.516253	907.928198	1455.976582	-338.377073	903.290152	1283.36575	-67.56778799999999	828.984572	1293.37797	-78.78118000000001	850.211309	1214.734398	-36.962188	802.5375770000001	1163.021863	-11.282171	881.0572539999999	1273.485851	-579.530005	802.354204	1251.259108	-572.159125	850.7103049999999	1190.835058	-594.686585	783.186379	1139.462316	-618.7651049999999	745.160421	1143.912894	-541.473144	866.768399	1052.226437	-30.649539	904.0270850000001	954.560413	-92.469504	872.516383	928.245553	-33.876521	880.688233	1057.023967	-593.30584	966.793962	1024.108757	-503.492269	954.7280040000001	979.792772	-554.51437	967.909268	963.799367	-435.85139	943.867825	761.517861	-147.816851	760.596192	1150.09989	-82.056184	
210	1.991667	994.227585	916.852008	-220.101267	812.998225	987.539666	-344.148296	821.97459	969.774851	-247.130095	970.23927	511.327578	-153.037927	940.646656	776.337457	-494.794974	1031.798046	695.729067	-470.436318	1015.724808	570.465768	-428.34684	857.894368	434.042411	-221.625077	818.486708	495.863599	-165.98393	757.077463	504.064607	-232.547755	1073.158391	370.346909	-322.391644	1017.334543	299.240272	-389.387655	1006.595885	211.740377	-304.223706	665.977548	673.320056	-252.853645	543.171722	500.874302	-262.879467	545.150954	532.6940080000001	-170.745037	860.41249	110.172379	-290.157181	1061.499241	74.23538499999999	-256.535009	1050.619727	61.017182	-347.141583	969.0221	1384.549553	-523.350757	973.430355	1399.298584	-124.412145	1030.815125	1387.705423	-303.941675	908.5124970000001	1453.270696	-339.479144	895.768634	1281.297377	-68.680536	822.151953	1291.466355	-84.14719100000001	840.281978	1214.073903	-38.523553	790.9032570000001	1162.589258	-14.233298	889.727785	1265.9631	-579.630761	811.01605	1241.642593	-575.493563	862.080619	1182.754535	-595.530262	797.128171	1128.505483	-621.169887	755.069764	1132.167712	-545.6723040000001	849.354295	1047.201183	-27.973917	882.114817	945.0952559999999	-85.387381	847.084718	922.758509	-26.96123	896.592984	1049.656155	-591.857538	979.922784	1020.955374	-499.637172	971.432429	975.759804	-550.370163	964.17572	962.5339760000001	-437.075118	946.4191520000001	759.2142270000001	-148.220579	751.752413	1149.204752	-86.45888600000001	
211	2	990.370535	913.668642	-221.093633	808.04264	985.437812	-344.547509	819.697254	969.241461	-248.289976	995.416904	515.137085	-152.426109	932.80537	774.086089	-495.527151	1022.694664	692.137337	-470.584533	1000.856298	564.981621	-428.115401	887.417871	434.049741	-221.185135	846.836907	493.324411	-165.37719	784.906977	499.669188	-232.834869	1049.962241	360.8903	-322.463716	989.93118	292.193823	-388.872511	975.123181	207.321109	-302.969877	684.161777	666.790888	-252.395974	573.435649	486.222405	-261.125972	575.79267	517.2894250000001	-168.737202	823.499534	111.059328	-290.500387	1024.340865	73.300284	-256.572253	1013.309847	60.235485	-347.187565	973.518495	1381.678979	-522.854928	968.913597	1396.97843	-124.057378	1030.092476	1385.074017	-302.150665	908.695579	1451.320389	-340.271996	888.135569	1280.262157	-69.720524	815.692561	1291.274449	-89.386117	830.240492	1214.893192	-40.30167	779.232036	1164.088485	-17.08637	897.88662	1260.96616	-579.5663929999999	820.100067	1234.076877	-577.444303	873.73491	1176.881554	-595.918813	811.462751	1119.822627	-622.887603	764.785743	1122.933833	-548.3612460000001	831.825364	1044.799138	-25.683745	859.737726	938.709606	-79.302739	821.95173	920.340922	-20.988191	913.093542	1044.948845	-589.841058	993.537005	1020.689703	-495.172942	989.044228	974.707864	-545.73139	958.884509	960.581693	-438.857148	947.413968	758.114428	-148.449768	743.228059	1149.966831	-90.67921	
212	2.008333	986.773202	912.808228	-220.826585	802.995663	983.779625	-345.943445	816.5355060000001	969.30304	-249.943613	1020.082267	522.448681	-153.046334	926.0139339999999	771.814405	-496.22853	1014.43262	686.956041	-470.387801	984.422825	559.810216	-427.610817	916.605948	435.814942	-221.630298	874.015274	492.453016	-165.371295	811.55944	495.659915	-233.652242	1025.436848	352.16648	-321.583029	963.164465	285.327679	-387.511485	943.269502	203.532796	-301.551058	698.833141	657.861372	-251.946806	603.259129	468.688122	-259.400132	605.236233	499.301817	-167.079301	787.5513079999999	112.118847	-290.600511	988.198336	72.677999	-256.465012	976.948891	59.775443	-347.127512	977.945077	1380.520486	-521.878511	963.949791	1395.76876	-123.533917	1029.207931	1383.490288	-300.079681	908.682279	1450.471498	-340.921681	880.11826	1280.384944	-70.593771	809.065844	1292.626847	-93.97845599999999	819.957937	1217.046882	-42.097182	767.36832	1167.339323	-19.835793	905.444048	1258.165678	-579.548842	829.164071	1228.370304	-578.3865479999999	885.230046	1173.042353	-595.954595	825.691391	1113.477114	-623.970758	774.536403	1116.196527	-549.7106250000001	814.3990690000001	1045.029488	-23.848998	837.520382	935.651168	-74.365082	797.84587	920.995079	-16.113875	929.6359670000001	1043.127976	-587.436747	1007.462302	1023.53194	-490.231405	1007.104385	976.820998	-540.713058	953.62303	958.510075	-440.463317	947.1099	758.249983	-148.654623	734.504814	1152.435499	-94.559929	
